<svg xmlns="http://www.w3.org/2000/svg" viewBox="0 0 500 500">
  <defs>
    <linearGradient id="grad1" x1="0%" y1="0%" x2="100%" y2="100%">
      <stop offset="0%" style="stop-color:#3b82f6;stop-opacity:1" />
      <stop offset="100%" style="stop-color:#8b5cf6;stop-opacity:1" />
    </linearGradient>
  </defs>
  
  <circle cx="250" cy="250" r="240" fill="url(#grad1)" opacity="0.1"/>
  <circle cx="250" cy="250" r="200" stroke="url(#grad1)" stroke-width="20" fill="none"/>
  
  <!-- Robot Hand / Circuit traces -->
  <path d="M150,400 L150,300 L100,250 M350,400 L350,300 L400,250" stroke="url(#grad1)" stroke-width="15" fill="none" stroke-linecap="round"/>
  <circle cx="100" cy="250" r="20" fill="#3b82f6"/>
  <circle cx="400" cy="250" r="20" fill="#8b5cf6"/>
  
  <!-- Brain Neural Network -->
  <circle cx="250" cy="150" r="30" fill="white"/>
  <circle cx="200" cy="220" r="25" fill="white"/>
  <circle cx="300" cy="220" r="25" fill="white"/>
  <circle cx="250" cy="290" r="25" fill="white"/>
  
  <line x1="250" y1="150" x2="200" y2="220" stroke="white" stroke-width="8"/>
  <line x1="250" y1="150" x2="300" y2="220" stroke="white" stroke-width="8"/>
  <line x1="200" y1="220" x2="250" y2="290" stroke="white" stroke-width="8"/>
  <line x1="300" y1="220" x2="250" y2="290" stroke="white" stroke-width="8"/>
  <line x1="200" y1="220" x2="300" y2="220" stroke="white" stroke-width="8"/>
  
  <text x="50%" y="450" text-anchor="middle" font-family="Arial, sans-serif" font-weight="bold" font-size="60" fill="url(#grad1)">PAI</text>
</svg>